PathFileType	4	(X/Y/Z)	C:/Users/beibeiliu/ov580/test_trc/User1\sequence.21_training_dense_left.trc
DataRate	CameraRate	NumFrames	NumMarkers	Units	OrigDataRate	OrigDataStartFrame	OrigNumFrames
120	120	14	19	mm	120	32	62
Frame#	Time	ThumbCMC			ThumbMCP			ThumbIP			ThumbTip			IndexMCP			IndexPIP			IndexTip			MiddleMCP			MiddlePIP			MiddleTip			RingMCP			RingPIP			RingTip			PinkyMCP			PinkyPIP			PinkyTip			BackHand1			BackHand2			BackHand3	
		X0	Y0	Z0	X1	Y1	Z1	X2	Y2	Z2	X3	Y3	Z3	X4	Y4	Z4	X5	Y5	Z5	X6	Y6	Z6	X7	Y7	Z7	X8	Y8	Z8	X9	Y9	Z9	X10	Y10	Z10	X11	Y11	Z11	X12	Y12	Z12	X13	Y13	Z13	X14	Y14	Z14	X15	Y15	Z15	X16	Y16	Z16	X17	Y17	Z17	X18	Y18	Z18	
31	0.258333	-216.017	58.1986	87.8621	-193.867	75.0512	54.8341	-181.681	61.1459	33.6763	-164.202	34.2242	22.8392	-224.256	34.2946	3.54939	-197.806	42.1601	-10.2247	-181.479	54.9979	20.574	-213.921	12.8111	0.352591	-182.383	24.9226	-3.86081	-176.161	35.3508	33.5844	-199.372	-8.10403	11.9614	-171.653	7.07198	6.95848	-167.345	18.9892	40.085	-190.647	-22.8059	30.2737	-164.243	-5.20919	22.3884	-160.476	12.7082	47.447	-227.481	-11.7379	70.3208	-225.121	-5.67167	106.541	-239.204	25.9702	82.0891	
32	0.266667	-202.361	60.9881	93.1767	-178.401	68.1436	62.2421	-173.592	57.2362	33.1023	-179.572	28.3202	20.4271	-228.637	67.4515	15.6701	-202.044	58.3913	-4.99809	-181.868	52.474	24.3109	-234.191	40.2216	5.70663	-201.643	35.5524	-8.32265	-186.785	33.1414	28.6041	-231.743	18.1542	7.79036	-200.303	12.7262	-1.3251	-186.828	12.6519	30.2362	-228.475	-7.14628	20.741	-200.263	-0.123752	12.9219	-182.717	5.64669	40.5917	-252.345	12.9604	68.1122	-244.536	9.35534	104.789	-240.906	41.7677	88.7326	
33	0.275	-180.975	46.9596	99.9707	-159.14	42.9583	64.7251	-165.018	36.0189	32.0959	-182.987	18.9426	19.3411	-203.008	76.1459	23.0694	-186.603	57.3649	0.914954	-174.767	38.3354	29.4683	-219.333	63.9634	10.2478	-199.281	42.4072	-5.43124	-189.005	23.5364	26.293	-232.207	43.3808	9.55683	-211.896	22.5154	-1.26429	-201.567	8.11078	29.5104	-244.218	19.0017	17.2007	-219.134	7.97165	11.8518	-199.874	-4.46043	33.1568	-249.79	44.366	72.9013	-249.704	31.464	103.824	-226.273	57.4303	94.8117	
34	0.283333	-168.522	26.932	102.506	-146.166	13.6455	69.5983	-154.157	10.0528	40.3191	-179.555	2.8335	23.9509	-173.845	62.1003	26.2125	-167.597	34.2866	5.39281	-167.151	15.9017	31.4783	-196.052	57.2179	11.2592	-186.838	26.1059	-1.4934	-184.674	8.9135	34.3253	-219.456	43.4659	12.6275	-202.401	14.2866	2.24604	-201.378	-1.10326	33.7669	-238.563	27.1416	25.22	-217.766	3.76438	15.0327	-203.571	-9.79366	40.0737	-230.994	51.3441	75.8624	-236.864	37.6207	110.149	-204.694	53.4621	96.7764	
35	0.291667	-153.714	19.2493	107.3	-134.316	2.07477	74.2418	-142.132	-7.36676	49.0646	-166.957	-17.6228	35.0421	-155.33	39.9211	21.7615	-147.179	8.20329	9.06641	-150.116	-3.24323	39.2874	-182.426	31.1837	8.40833	-169.279	-0.431491	4.73417	-168.53	-9.83568	42.3175	-203.115	19.6277	12.4076	-188.236	-12.543	11.2035	-186.766	-17.3898	42.8097	-220.752	6.44306	22.7251	-202.881	-18.065	25.0548	-194.562	-24.9466	52.4031	-217.778	43.1149	69.9822	-224.284	37.6034	106.407	-188.596	45.2018	94.9909	
36	0.3	-149.787	34.3183	106.341	-124.589	16.0395	79.6286	-126.266	-2.02514	57.7709	-144.251	-26.892	43.3759	-154.364	27.6533	18.8761	-138.104	1.48657	11.471	-134.676	-3.88827	47.339	-171.612	13.0653	10.7296	-148.76	-13.0169	10.7541	-152.175	-16.0575	50.7801	-188.275	-5.42038	17.4265	-165.293	-29.1165	21.5078	-164.223	-22.2507	58.8216	-198.769	-21.2064	30.6925	-176.564	-34.7273	39.1803	-170.877	-28.8863	70.848	-216.25	21.7203	67.9464	-221.513	26.3805	100.461	-190.523	42.4464	87.858	
37	0.308333	-164.126	51.7965	96.0541	-130.546	45.5569	73.7132	-120.617	24.3876	59.369	-121.145	-8.13681	52.7205	-154.348	23.3716	12.8121	-125.84	10.8086	14.0972	-121.075	19.1006	47.8042	-163.948	0.499979	13.9706	-130.282	-9.74612	18.6106	-134.388	-3.22513	56.3592	-167.13	-22.2142	24.6859	-132.987	-24.4247	36.0289	-143.169	-15.1394	69.4191	-174.833	-37.4565	43.5231	-143.908	-37.3846	51.5618	-142.365	-16.7032	75.5587	-207.924	3.30458	69.8611	-220.424	4.80798	100.583	-199.488	37.7745	78.5894	
38	0.316667	-186.224	54.5028	88.365	-152.59	68.3231	65.3255	-131.334	49.96	50.8862	-119.093	24.0264	55.7372	-163.636	22.7251	12.7185	-129.501	28.1242	7.82806	-126.07	38.6346	41.9195	-155.957	1.43523	14.6726	-120.89	7.4953	20.0767	-130.691	19.1129	58.0892	-145.761	-17.7001	29.2758	-115.878	-5.55793	38.572	-126.834	6.4626	68.6914	-144.018	-31.7718	51.4249	-118.688	-18.3475	56.502	-129.399	3.86681	83.4585	-193.268	-15.3779	75.5821	-207.817	-6.13101	103.702	-208.027	22.6718	76.8404	
39	0.325	-200.802	48.987	85.6684	-177.958	68.4955	61.4758	-150.583	58.6516	42.4051	-127.855	35.0715	47.9656	-170.99	18.285	7.34447	-145.108	29.9824	0.245534	-141.768	50.3477	32.8127	-154.894	-2.80001	12.8537	-127.622	18.5914	15.5332	-134.227	30.2764	49.0894	-143.921	-12.3982	28.9404	-117.499	8.93994	33.8869	-128.636	20.4478	65.4272	-133.884	-23.3961	50.2286	-115.861	-1.01263	50.8887	-128.855	17.2056	75.856	-187.936	-18.621	77.6396	-197.487	-14.525	109.233	-210.978	12.6316	80.913	
40	0.333333	-212.029	54.2659	84.047	-190.273	69.7985	57.0348	-167.204	63.766	36.4999	-140.996	42.8315	37.4118	-188.927	18.2717	5.17114	-164.148	34.5246	-3.89328	-155.929	51.0132	25.8605	-171.949	0.183491	9.26559	-145.589	21.333	5.65897	-151.174	38.9441	40.6638	-155.638	-11.822	23.752	-131.857	12.3533	21.876	-140.79	27.2162	54.4498	-148.773	-20.011	44.514	-127.196	1.34343	39.667	-136.917	24.4101	62.7256	-191.162	-21.0674	75.2564	-201.741	-13.6276	109.671	-218.307	8.69998	82.8763	
41	0.341667	-214.121	62.4791	89.3041	-190.367	75.362	63.2624	-170.485	65.0344	34.3675	-154.821	38.2679	32.8066	-210.571	33.4009	8.02259	-183.599	40.989	-7.37928	-166.48	53.546	21.8375	-195.872	9.49786	4.5392	-166.195	26.2671	-0.663854	-161.42	35.3233	38.0107	-181.887	-8.22027	16.9628	-155.14	12.8636	12.3181	-154.35	25.6813	44.5038	-170.684	-20.8803	34.6892	-149.154	0.0298465	29.6077	-147.719	19.5837	58.6924	-212.2	-11.1943	73.0874	-216.681	-5.01664	107.006	-230.473	22.916	86.2338	
42	0.35	-199.375	65.3567	93.9692	-172.461	74.6956	66.1171	-166.749	55.6402	38.6207	-163.102	30.4281	31.1095	-216.449	59.6911	13.045	-185.446	55.57	-2.80016	-165.648	57.2778	27.9091	-213.733	32.155	3.30076	-180.595	31.8091	-2.50208	-170.665	36.8535	37.3083	-209.064	7.595	12.2168	-174.426	9.74303	8.54305	-168.051	17.3301	40.3245	-203.607	-12.1442	26.1563	-175.456	-1.7789	21.21	-164.441	10.5473	49.5821	-234.386	7.48591	72.935	-232.93	5.78579	106.385	-233.482	40.8874	90.6938	
43	0.358333	-179.228	54.2224	102.405	-156.526	49.9959	71.4156	-154.782	40.5508	43.7451	-170.744	16.6047	25.3472	-199.803	71.5317	20.1135	-175.926	61.2164	1.71353	-158.935	42.1549	27.776	-214.506	53.3444	11.6087	-182.073	39.4299	-1.38547	-174.214	25.5605	32.8473	-219.609	31.6003	9.82668	-193.216	16.6559	2.2165	-183.784	6.26947	35.767	-225.441	11.1403	21.1206	-199.355	1.46928	14.9281	-181.294	-0.630056	40.5184	-241.701	33.4489	72.1364	-244.345	20.0895	106.388	-221.238	54.9948	98.489	
44	0.366667	-170.625	29.8141	105.458	-144.92	20.8574	72.0579	-149.426	17.4553	38.1214	-173.275	6.50204	24.923	-176.08	67.3108	28.5286	-164.554	48.8049	4.13139	-156.973	21.0644	29.7805	-197.8	59.9976	18.4577	-182.681	36.1247	-2.67585	-175.163	11.8423	29.6902	-216.638	41.3919	11.8525	-199.75	18.5715	-0.315978	-193.861	-0.834111	30.1047	-232.43	24.4968	26.0641	-210.775	3.1103	12.8526	-193.334	-7.55271	38.9417	-232.797	42.9565	77.9823	-235.121	32.42	109.626	-202.858	54.291	100.662	
